<svg xmlns="http://www.w3.org/2000/svg" xmlns:xlink="http://www.w3.org/1999/xlink" width="596.431" height="392.336" viewBox="0 0 447.323 294.252"><defs><symbol overflow="visible" id="a"><path d="M3.719-3.766c-.188-.375-.469-.64-.922-.64-1.156 0-2.39 1.468-2.39 2.922C.406-.547.952.109 1.718.109c.203 0 .703-.046 1.297-.75a.91.91 0 0 0 .906.75c.36 0 .578-.234.75-.546a6.49 6.49 0 0 0 .297-.985c0-.11-.094-.11-.125-.11-.094 0-.11.048-.14.188-.173.64-.345 1.235-.75 1.235-.282 0-.298-.266-.298-.454 0-.218.016-.312.125-.75.11-.406.125-.515.219-.89l.36-1.39c.062-.282.062-.298.062-.345 0-.171-.11-.265-.281-.265-.25 0-.391.219-.422.437zm-.64 2.579c-.063.187-.063.203-.204.375-.438.546-.844.703-1.125.703-.5 0-.64-.547-.64-.938 0-.5.312-1.719.546-2.187.313-.579.75-.954 1.157-.954.64 0 .78.813.78.875a.562.562 0 0 1-.03.172zm0 0"/></symbol><symbol overflow="visible" id="b"><path d="M2.375-6.813s0-.109-.125-.109c-.219 0-.953.078-1.219.11-.078 0-.187.015-.187.187 0 .125.094.125.25.125.468 0 .484.063.484.172 0 .062-.078.406-.125.61l-.828 3.25c-.11.5-.156.671-.156 1.015C.469-.516 1 .109 1.734.109c1.172 0 2.407-1.484 2.407-2.921 0-.907-.532-1.594-1.329-1.594-.453 0-.874.297-1.171.593zm-.922 3.766c.047-.219.047-.234.14-.344.485-.64.938-.796 1.204-.796.36 0 .625.296.625.937 0 .594-.328 1.734-.516 2.11-.328.671-.781 1.03-1.172 1.03-.343 0-.671-.265-.671-1 0-.202 0-.39.156-1.015zm0 0"/></symbol><symbol overflow="visible" id="c"><path d="M3.953-3.781c-.172 0-.297 0-.437.125a.53.53 0 0 0-.188.39c0 .25.188.36.375.36.281 0 .547-.25.547-.64 0-.485-.469-.86-1.172-.86-1.344 0-2.672 1.422-2.672 2.828C.406-.672.984.109 2.031.109c1.422 0 2.25-1.062 2.25-1.171 0-.063-.047-.141-.11-.141-.062 0-.077.031-.14.11-.781.984-1.875.984-1.984.984-.625 0-.906-.485-.906-1.094 0-.406.203-1.375.546-1.984.313-.579.86-1 1.407-1 .328 0 .719.125.86.406zm0 0"/></symbol><symbol overflow="visible" id="d"><path d="M3.422-3.406c-.172-.328-.438-.563-.844-.563-1.047 0-2.203 1.25-2.203 2.61C.375-.375 1 .094 1.609.094c.579 0 1.047-.485 1.204-.656.093.5.546.656.828.656.265 0 .484-.11.687-.485.156-.296.281-.859.281-.89 0-.047-.03-.11-.109-.11-.11 0-.125.047-.156.22-.203.78-.39 1.046-.672 1.046-.235 0-.281-.219-.281-.406 0-.172.046-.36.125-.672l.218-.922c.063-.219.235-.89.266-1.031.031-.125.094-.344.094-.375 0-.14-.125-.25-.282-.25-.124 0-.343.062-.39.375zm-.578 2.312c-.047.172-.047.172-.188.344-.328.39-.687.625-1.031.625-.438 0-.578-.453-.578-.844 0-.437.25-1.469.469-1.906.28-.531.703-.86 1.062-.86.594 0 .735.72.735.782a.368.368 0 0 1-.032.125zm0 0"/></symbol><symbol overflow="visible" id="e"><path d="M2.14-5.922c.032-.125.032-.14.032-.172 0-.078-.047-.125-.125-.125-.125 0-.922.063-1.094.078-.094.016-.187.032-.187.172 0 .125.093.125.234.125.422 0 .422.063.422.14 0 .048 0 .079-.063.313L.891-3.5c-.125.5-.25.969-.344 1.39a2.802 2.802 0 0 0-.125.766C.422-.562.859.094 1.625.094c1.047 0 2.203-1.266 2.203-2.61 0-.906-.578-1.453-1.25-1.453-.453 0-.844.313-1.047.516zm-.734 2.984c.25-.359.703-.796 1.157-.796.421 0 .593.421.593.843 0 .391-.25 1.516-.531 1.985-.328.578-.719.781-1 .781C1.172-.125 1-.578 1-1.031c0-.313.063-.563.266-1.375zm0 0"/></symbol><symbol overflow="visible" id="f"><path d="M3.61-3.422a.508.508 0 0 0-.532.485c0 .265.235.328.344.328.187 0 .5-.157.5-.579 0-.468-.469-.78-1.094-.78-1.219 0-2.437 1.25-2.437 2.53C.39-.53.984.095 1.89.095c1.343 0 2.093-.922 2.093-1.047 0-.047-.062-.125-.125-.125-.03 0-.046.016-.125.11-.546.655-1.359.843-1.828.843-.5 0-.828-.328-.828-.984 0-.375.172-1.266.531-1.844.204-.328.672-.781 1.235-.781.172 0 .547.03.765.312zm0 0"/></symbol></defs><path d="M95.203 24.336c0-7.828-6.348-14.176-14.176-14.176s-14.172 6.348-14.172 14.176S73.2 38.508 81.027 38.508s14.176-6.344 14.176-14.172zm0 0" fill="#b2b2ff" stroke-width=".399" stroke="#000" stroke-miterlimit="10"/><path d="M38.508 75.36c0-7.829-6.344-14.172-14.172-14.172S10.16 67.53 10.16 75.358c0 7.829 6.348 14.172 14.176 14.172s14.172-6.344 14.172-14.172zm0 0" fill="#ccc" stroke-width=".399" stroke="#000" stroke-miterlimit="10"/><use xlink:href="#a" x="21.702" y="77.503"/><path d="M95.203 75.36c0-7.829-6.348-14.172-14.176-14.172s-14.172 6.342-14.172 14.17c0 7.829 6.344 14.172 14.172 14.172s14.176-6.344 14.176-14.172zm0 0" fill="#ccc" stroke-width=".399" stroke="#000" stroke-miterlimit="10"/><use xlink:href="#b" x="78.89" y="78.818"/><path d="M151.895 126.383c0-7.828-6.344-14.172-14.172-14.172s-14.176 6.344-14.176 14.172 6.348 14.176 14.176 14.176 14.172-6.348 14.172-14.176zm0 0" fill="#b2ffb2" stroke-width=".399" stroke="#000" stroke-miterlimit="10"/><use xlink:href="#b" x="133.427" y="129.841"/><use xlink:href="#c" x="137.703" y="129.841"/><path d="M38.508 126.383c0-7.828-6.344-14.172-14.172-14.172s-14.176 6.344-14.176 14.172 6.348 14.176 14.176 14.176 14.172-6.348 14.172-14.176zm0 0" fill="#ccc" stroke-width=".399" stroke="#000" stroke-miterlimit="10"/><use xlink:href="#a" x="19.564" y="129.841"/><use xlink:href="#b" x="24.83" y="129.841"/><path d="M95.203 171.738c0-7.828-6.348-14.172-14.176-14.172s-14.172 6.344-14.172 14.172S73.2 185.91 81.027 185.91s14.176-6.344 14.176-14.172zm0 0" fill="#ccc" stroke-width=".399" stroke="#000" stroke-miterlimit="10"/><use xlink:href="#a" x="74.101" y="175.195"/><use xlink:href="#b" x="79.367" y="175.195"/><use xlink:href="#c" x="83.643" y="175.195"/><path d="M151.895 217.094c0-7.828-6.344-14.172-14.172-14.172s-14.176 6.344-14.176 14.172 6.348 14.172 14.176 14.172 14.172-6.344 14.172-14.172zm0 0" fill="#ccc" stroke-width=".399" stroke="#000" stroke-miterlimit="10"/><use xlink:href="#a" x="128.656" y="220.55"/><use xlink:href="#b" x="133.922" y="220.55"/><use xlink:href="#c" x="138.198" y="220.55"/><use xlink:href="#b" x="142.51" y="220.55"/><path d="M210.39 268.117c0-8.824-7.152-15.976-15.976-15.976-8.82 0-15.976 7.152-15.976 15.976 0 8.824 7.156 15.977 15.976 15.977 8.824 0 15.977-7.153 15.977-15.977zm0 0" fill="#b2ffb2" stroke-width=".399" stroke="#000" stroke-miterlimit="10"/><use xlink:href="#a" x="183.194" y="271.574"/><use xlink:href="#b" x="188.46" y="271.574"/><use xlink:href="#c" x="192.736" y="271.574"/><use xlink:href="#b" x="197.048" y="271.574"/><use xlink:href="#c" x="201.324" y="271.574"/><path d="M70.344 33.95L35.359 65.436" fill="none" stroke-width=".399" stroke="#000" stroke-miterlimit="10"/><path d="M37.324 65.824c-.476-.379-1.898-.312-2.187-.187.156-.274.37-1.68.043-2.196" fill="none" stroke-width=".321" stroke-linecap="round" stroke-linejoin="round" stroke="#000" stroke-miterlimit="10"/><use xlink:href="#d" x="50.241" y="46.327"/><path d="M81.027 38.707v21.82" fill="none" stroke-width=".399" stroke="#000" stroke-miterlimit="10"/><path d="M82.621 59.332c-.598.102-1.492 1.195-1.594 1.496-.097-.3-.996-1.394-1.593-1.496" fill="none" stroke-width=".319" stroke-linecap="round" stroke-linejoin="round" stroke="#000" stroke-miterlimit="10"/><use xlink:href="#e" x="84.548" y="52.96"/><path d="M88.023 36.93l42.48 76.46" fill="none" stroke-width=".399" stroke="#000" stroke-miterlimit="10"/><path d="M131.316 111.566c-.476.38-.726 1.774-.668 2.086-.234-.215-1.55-.738-2.125-.535" fill="none" stroke-width=".32" stroke-linecap="round" stroke-linejoin="round" stroke="#000" stroke-miterlimit="10"/><use xlink:href="#f" x="112.894" y="77.289"/><path d="M24.336 89.73v21.825" fill="none" stroke-width=".399" stroke="#000" stroke-miterlimit="10"/><path d="M25.93 110.355c-.598.102-1.496 1.2-1.594 1.497-.102-.297-.996-1.395-1.594-1.497" fill="none" stroke-width=".319" stroke-linecap="round" stroke-linejoin="round" stroke="#000" stroke-miterlimit="10"/><use xlink:href="#e" x="16.866" y="103.984"/><path d="M35.613 135.406l33.778 27.024" fill="none" stroke-width=".399" stroke="#000" stroke-miterlimit="10"/><path d="M69.453 160.438c-.293.53 0 1.914.172 2.18-.297-.11-1.71-.095-2.164.308" fill="none" stroke-width=".319" stroke-linecap="round" stroke-linejoin="round" stroke="#000" stroke-miterlimit="10"/><use xlink:href="#f" x="50.687" y="145.539"/><path d="M92.305 180.762l33.78 27.023" fill="none" stroke-width=".399" stroke="#000" stroke-miterlimit="10"/><path d="M126.148 205.793c-.296.527 0 1.914.172 2.18-.297-.11-1.71-.094-2.164.308" fill="none" stroke-width=".319" stroke-linecap="round" stroke-linejoin="round" stroke="#000" stroke-miterlimit="10"/><use xlink:href="#e" x="107.4" y="190.894"/><path d="M137.723 140.758v61.504" fill="none" stroke-width=".399" stroke="#000" stroke-miterlimit="10"/><path d="M139.316 201.066c-.597.102-1.496 1.196-1.593 1.496-.102-.3-.996-1.394-1.594-1.496" fill="none" stroke-width=".319" stroke-linecap="round" stroke-linejoin="round" stroke="#000" stroke-miterlimit="10"/><use xlink:href="#e" x="141.241" y="174.85"/><path d="M148.406 226.707l33.645 30.281" fill="none" stroke-width=".399" stroke="#000" stroke-miterlimit="10"/><path d="M182.227 254.996c-.325.512-.11 1.918.046 2.195-.289-.129-1.71-.195-2.187.184" fill="none" stroke-width=".321" stroke-linecap="round" stroke-linejoin="round" stroke="#000" stroke-miterlimit="10"/><use xlink:href="#f" x="168.917" y="243.93"/><path d="M91.71 84.973l34.985 31.488" fill="none" stroke-width=".399" stroke="#000" stroke-miterlimit="10"/><path d="M126.875 114.465c-.328.515-.113 1.922.043 2.195-.29-.125-1.711-.191-2.188.188" fill="none" stroke-width=".321" stroke-linecap="round" stroke-linejoin="round" stroke="#000" stroke-miterlimit="10"/><use xlink:href="#f" x="107.38" y="97.351"/><path d="M321.977 24.336c0-7.828-6.348-14.176-14.176-14.176-7.824 0-14.172 6.348-14.172 14.176s6.348 14.172 14.172 14.172c7.828 0 14.176-6.344 14.176-14.172zm0 0" fill="#b2b2ff" stroke-width=".399" stroke="#000" stroke-miterlimit="10"/><path d="M265.281 75.36c0-7.829-6.344-14.172-14.172-14.172s-14.175 6.343-14.175 14.171c0 7.829 6.347 14.172 14.175 14.172s14.172-6.344 14.172-14.172zm0 0" fill="#ccc" stroke-width=".399" stroke="#000" stroke-miterlimit="10"/><use xlink:href="#a" x="248.474" y="77.503"/><path d="M321.977 75.36c0-7.829-6.348-14.172-14.176-14.172-7.824 0-14.172 6.343-14.172 14.171 0 7.829 6.348 14.172 14.172 14.172 7.828 0 14.176-6.344 14.176-14.172zm0 0" fill="#ccc" stroke-width=".399" stroke="#000" stroke-miterlimit="10"/><use xlink:href="#b" x="305.662" y="78.818"/><path d="M378.668 126.383c0-7.828-6.344-14.172-14.172-14.172s-14.172 6.344-14.172 14.172 6.344 14.176 14.172 14.176 14.172-6.348 14.172-14.176zm0 0" fill="#b2ffb2" stroke-width=".399" stroke="#000" stroke-miterlimit="10"/><use xlink:href="#b" x="360.199" y="129.841"/><use xlink:href="#c" x="364.475" y="129.841"/><path d="M265.281 126.383c0-7.828-6.344-14.172-14.172-14.172s-14.175 6.344-14.175 14.172 6.347 14.176 14.175 14.176 14.172-6.348 14.172-14.176zm0 0" fill="#ccc" stroke-width=".399" stroke="#000" stroke-miterlimit="10"/><use xlink:href="#a" x="246.336" y="129.841"/><use xlink:href="#b" x="251.602" y="129.841"/><path d="M321.977 171.738c0-7.828-6.348-14.172-14.176-14.172-7.824 0-14.172 6.344-14.172 14.172s6.348 14.172 14.172 14.172c7.828 0 14.176-6.344 14.176-14.172zm0 0" fill="#ccc" stroke-width=".399" stroke="#000" stroke-miterlimit="10"/><use xlink:href="#a" x="300.873" y="175.196"/><use xlink:href="#b" x="306.139" y="175.196"/><use xlink:href="#c" x="310.415" y="175.196"/><path d="M378.668 217.094c0-7.828-6.344-14.172-14.172-14.172s-14.172 6.344-14.172 14.172 6.344 14.172 14.172 14.172 14.172-6.344 14.172-14.172zm0 0" fill="#ccc" stroke-width=".399" stroke="#000" stroke-miterlimit="10"/><use xlink:href="#a" x="355.428" y="220.55"/><use xlink:href="#b" x="360.694" y="220.55"/><use xlink:href="#c" x="364.97" y="220.55"/><use xlink:href="#b" x="369.282" y="220.55"/><path d="M437.164 268.117c0-8.824-7.152-15.976-15.973-15.976-8.824 0-15.976 7.152-15.976 15.976 0 8.824 7.152 15.977 15.976 15.977 8.82 0 15.973-7.153 15.973-15.977zm0 0" fill="#b2ffb2" stroke-width=".399" stroke="#000" stroke-miterlimit="10"/><use xlink:href="#a" x="409.965" y="271.574"/><use xlink:href="#b" x="415.231" y="271.574"/><use xlink:href="#c" x="419.507" y="271.574"/><use xlink:href="#b" x="423.819" y="271.574"/><use xlink:href="#c" x="428.095" y="271.574"/><path d="M261.793 65.746l34.984-31.488" fill="none" stroke-width=".399" stroke="red" stroke-miterlimit="10"/><path d="M294.813 33.871c.476.379 1.898.313 2.187.188-.156.273-.371 1.68-.043 2.195" fill="none" stroke-width=".321" stroke-linecap="round" stroke-linejoin="round" stroke="red" stroke-miterlimit="10"/><path d="M307.8 60.988V39.164" fill="none" stroke-width=".399" stroke="red" stroke-miterlimit="10"/><path d="M306.207 40.363c.598-.101 1.496-1.199 1.594-1.496.101.297.996 1.395 1.597 1.496" fill="none" stroke-width=".319" stroke-linecap="round" stroke-linejoin="round" stroke="red" stroke-miterlimit="10"/><path d="M357.5 113.79l-42.477-76.462" fill="none" stroke-width=".399" stroke="red" stroke-miterlimit="10"/><path d="M314.207 39.152c.477-.379.727-1.773.668-2.086.234.215 1.555.739 2.125.536" fill="none" stroke-width=".32" stroke-linecap="round" stroke-linejoin="round" stroke="red" stroke-miterlimit="10"/><path d="M261.793 116.77l34.984-31.489" fill="none" stroke-width=".399" stroke="red" stroke-miterlimit="10"/><path d="M294.812 84.895c.477.378 1.899.312 2.188.187-.156.273-.371 1.68-.043 2.195" fill="none" stroke-width=".321" stroke-linecap="round" stroke-linejoin="round" stroke="red" stroke-miterlimit="10"/><path d="M319.082 162.715l33.777-27.024" fill="none" stroke-width=".399" stroke="red" stroke-miterlimit="10"/><path d="M350.93 135.195c.453.403 1.867.418 2.164.309-.172.266-.469 1.652-.172 2.18" fill="none" stroke-width=".319" stroke-linecap="round" stroke-linejoin="round" stroke="red" stroke-miterlimit="10"/><path d="M359.14 203.703L313.329 89.176" fill="none" stroke-width=".399" stroke="red" stroke-miterlimit="10"/><path d="M312.29 90.883c.519-.313.948-1.668.929-1.985.203.243 1.445.93 2.043.797" fill="none" stroke-width=".32" stroke-linecap="round" stroke-linejoin="round" stroke="red" stroke-miterlimit="10"/><path d="M415.16 253.047l-45.137-112.848" fill="none" stroke-width=".399" stroke="red" stroke-miterlimit="10"/><path d="M368.984 141.902c.52-.316.946-1.664.926-1.98.203.242 1.445.926 2.035.797" fill="none" stroke-width=".319" stroke-linecap="round" stroke-linejoin="round" stroke="red" stroke-miterlimit="10"/></svg>