<svg xmlns="http://www.w3.org/2000/svg" xmlns:xlink="http://www.w3.org/1999/xlink" width="208.516" height="57.335" viewBox="0 0 156.387 43.001"><defs><symbol overflow="visible" id="a"><path d="M2.047-3.984h.937c.204 0 .313 0 .313-.204 0-.109-.11-.109-.281-.109H2.14c.359-1.422.406-1.61.406-1.672 0-.172-.125-.265-.297-.265-.031 0-.313 0-.39.359l-.391 1.578H.53c-.203 0-.297 0-.297.188 0 .125.078.125.282.125h.875C.67-1.156.625-.984.625-.813c0 .547.375.922.922.922 1.016 0 1.578-1.453 1.578-1.53 0-.11-.078-.11-.11-.11-.093 0-.109.031-.156.14C2.438-.344 1.906-.109 1.563-.109c-.204 0-.313-.125-.313-.454 0-.25.031-.312.063-.484zm0 0"/></symbol><symbol overflow="visible" id="b"><path d="M3.594-2.219c0-.765-.094-1.328-.406-1.812-.22-.313-.657-.594-1.204-.594C.36-4.625.36-2.719.36-2.219c0 .5 0 2.36 1.625 2.36 1.61 0 1.61-1.86 1.61-2.36zM1.984-.063c-.328 0-.75-.187-.89-.75C1-1.219 1-1.796 1-2.313c0-.515 0-1.046.094-1.421.156-.547.593-.704.89-.704.375 0 .735.235.86.641.11.375.125.875.125 1.485 0 .515 0 1.03-.094 1.468-.14.64-.61.781-.89.781zm0 0"/></symbol><symbol overflow="visible" id="c"><path d="M3.422-3.406c-.172-.328-.438-.563-.844-.563-1.047 0-2.203 1.25-2.203 2.61C.375-.375 1 .094 1.609.094c.579 0 1.047-.485 1.204-.656.093.5.546.656.828.656.265 0 .484-.11.687-.485.156-.296.281-.859.281-.89 0-.047-.03-.11-.109-.11-.11 0-.125.047-.156.22-.203.78-.39 1.046-.672 1.046-.235 0-.281-.219-.281-.406 0-.172.046-.36.125-.672l.218-.922c.063-.219.235-.89.266-1.031.031-.125.094-.344.094-.375 0-.14-.125-.25-.282-.25-.124 0-.343.062-.39.375zm-.578 2.312c-.047.172-.047.172-.188.344-.328.39-.687.625-1.031.625-.438 0-.578-.453-.578-.844 0-.437.25-1.469.469-1.906.28-.531.703-.86 1.062-.86.594 0 .735.72.735.782a.368.368 0 0 1-.032.125zm0 0"/></symbol></defs><path d="M32.84 21.5c0-6.262-5.078-11.34-11.34-11.34S10.16 15.238 10.16 21.5s5.078 11.34 11.34 11.34 11.34-5.078 11.34-11.34zm0 0" fill="#b2b2ff" stroke-width=".399" stroke="#000" stroke-miterlimit="10"/><use xlink:href="#a" x="17.467" y="23.817"/><use xlink:href="#b" x="21.065" y="25.312"/><path d="M89.531 21.5c0-6.262-5.074-11.34-11.336-11.34-6.265 0-11.34 5.078-11.34 11.34s5.075 11.34 11.34 11.34c6.262 0 11.336-5.078 11.336-11.34zm56.696 0c0-6.262-5.079-11.34-11.34-11.34-6.262 0-11.34 5.078-11.34 11.34s5.078 11.34 11.34 11.34c6.261 0 11.34-5.078 11.34-11.34zm0 0" fill="#b2ffb2" stroke-width=".399" stroke="#000" stroke-miterlimit="10"/><path d="M33.04 21.5H66.2" fill="none" stroke-width=".399" stroke="#000" stroke-miterlimit="10"/><path d="M65 19.906c.102.598 1.2 1.492 1.496 1.594-.297.102-1.394.996-1.496 1.594" fill="none" stroke-width=".319" stroke-linecap="round" stroke-linejoin="round" stroke="#000" stroke-miterlimit="10"/><use xlink:href="#c" x="47.406" y="17.981"/><path d="M89.73 21.5h33.16" fill="none" stroke-width=".399" stroke="#000" stroke-miterlimit="10"/><path d="M121.695 19.906c.102.598 1.196 1.492 1.496 1.594-.3.102-1.394.996-1.496 1.594" fill="none" stroke-width=".319" stroke-linecap="round" stroke-linejoin="round" stroke="#000" stroke-miterlimit="10"/><use xlink:href="#c" x="104.099" y="17.981"/></svg>