<svg xmlns="http://www.w3.org/2000/svg" xmlns:xlink="http://www.w3.org/1999/xlink" width="359.697" height="118.105" viewBox="0 0 269.773 88.579"><defs><symbol overflow="visible" id="a"><path d="M2.047-3.984h.937c.204 0 .313 0 .313-.204 0-.109-.11-.109-.281-.109H2.14c.359-1.422.406-1.61.406-1.672 0-.172-.125-.265-.297-.265-.031 0-.313 0-.39.359l-.391 1.578H.53c-.203 0-.297 0-.297.188 0 .125.078.125.282.125h.875C.67-1.156.625-.984.625-.813c0 .547.375.922.922.922 1.016 0 1.578-1.453 1.578-1.53 0-.11-.078-.11-.11-.11-.093 0-.109.031-.156.14C2.438-.344 1.906-.109 1.563-.109c-.204 0-.313-.125-.313-.454 0-.25.031-.312.063-.484zm0 0"/></symbol><symbol overflow="visible" id="b"><path d="M3.594-2.219c0-.765-.094-1.328-.406-1.812-.22-.313-.657-.594-1.204-.594C.36-4.625.36-2.719.36-2.219c0 .5 0 2.36 1.625 2.36 1.61 0 1.61-1.86 1.61-2.36zM1.984-.063c-.328 0-.75-.187-.89-.75C1-1.219 1-1.796 1-2.313c0-.515 0-1.046.094-1.421.156-.547.593-.704.89-.704.375 0 .735.235.86.641.11.375.125.875.125 1.485 0 .515 0 1.03-.094 1.468-.14.64-.61.781-.89.781zm0 0"/></symbol><symbol overflow="visible" id="c"><path d="M3.422-3.406c-.172-.328-.438-.563-.844-.563-1.047 0-2.203 1.25-2.203 2.61C.375-.375 1 .094 1.609.094c.579 0 1.047-.485 1.204-.656.093.5.546.656.828.656.265 0 .484-.11.687-.485.156-.296.281-.859.281-.89 0-.047-.03-.11-.109-.11-.11 0-.125.047-.156.22-.203.78-.39 1.046-.672 1.046-.235 0-.281-.219-.281-.406 0-.172.046-.36.125-.672l.218-.922c.063-.219.235-.89.266-1.031.031-.125.094-.344.094-.375 0-.14-.125-.25-.282-.25-.124 0-.343.062-.39.375zm-.578 2.312c-.047.172-.047.172-.188.344-.328.39-.687.625-1.031.625-.438 0-.578-.453-.578-.844 0-.437.25-1.469.469-1.906.28-.531.703-.86 1.062-.86.594 0 .735.72.735.782a.368.368 0 0 1-.032.125zm0 0"/></symbol><symbol overflow="visible" id="d"><path d="M2.14-5.922c.032-.125.032-.14.032-.172 0-.078-.047-.125-.125-.125-.125 0-.922.063-1.094.078-.094.016-.187.032-.187.172 0 .125.093.125.234.125.422 0 .422.063.422.14 0 .048 0 .079-.063.313L.891-3.5c-.125.5-.25.969-.344 1.39a2.802 2.802 0 0 0-.125.766C.422-.562.859.094 1.625.094c1.047 0 2.203-1.266 2.203-2.61 0-.906-.578-1.453-1.25-1.453-.453 0-.844.313-1.047.516zm-.734 2.984c.25-.359.703-.796 1.157-.796.421 0 .593.421.593.843 0 .391-.25 1.516-.531 1.985-.328.578-.719.781-1 .781C1.172-.125 1-.578 1-1.031c0-.313.063-.563.266-1.375zm0 0"/></symbol></defs><path d="M32.84 23.031c0-6.261-5.078-11.34-11.34-11.34s-11.34 5.079-11.34 11.34c0 6.262 5.078 11.336 11.34 11.336s11.34-5.074 11.34-11.336zm0 0" fill="#b2b2ff" stroke-width=".399" stroke="#000" stroke-miterlimit="10"/><use xlink:href="#a" x="17.467" y="25.346"/><use xlink:href="#b" x="21.065" y="26.841"/><path d="M89.531 23.031c0-6.261-5.074-11.34-11.336-11.34-6.265 0-11.34 5.079-11.34 11.34 0 6.262 5.075 11.336 11.34 11.336 6.262 0 11.336-5.074 11.336-11.336zm56.696 0c0-6.261-5.079-11.34-11.34-11.34-6.262 0-11.34 5.079-11.34 11.34 0 6.262 5.078 11.336 11.34 11.336 6.261 0 11.34-5.074 11.34-11.336zm56.691 0c0-6.261-5.074-11.34-11.336-11.34-6.262 0-11.34 5.079-11.34 11.34 0 6.262 5.078 11.336 11.34 11.336s11.336-5.074 11.336-11.336zm0 0" fill="#ccc" stroke-width=".399" stroke="#000" stroke-miterlimit="10"/><path d="M259.613 23.031c0-6.261-5.078-11.34-11.34-11.34-6.261 0-11.335 5.079-11.335 11.34 0 6.262 5.074 11.336 11.335 11.336 6.262 0 11.34-5.074 11.34-11.336zM108.43 65.55c0-6.26-5.078-11.34-11.34-11.34s-11.34 5.08-11.34 11.34c0 6.263 5.078 11.34 11.34 11.34s11.34-5.078 11.34-11.34zm75.59 0c0-6.26-5.075-11.34-11.336-11.34-6.266 0-11.34 5.08-11.34 11.34 0 6.263 5.074 11.34 11.34 11.34 6.261 0 11.336-5.078 11.336-11.34zm0 0" fill="#b2ffb2" stroke-width=".399" stroke="#000" stroke-miterlimit="10"/><path d="M33.04 23.031H66.2" fill="none" stroke-width=".399" stroke="#000" stroke-miterlimit="10"/><path d="M65 21.438c.102.597 1.2 1.492 1.496 1.593-.297.098-1.394.996-1.496 1.594" fill="none" stroke-width=".319" stroke-linecap="round" stroke-linejoin="round" stroke="#000" stroke-miterlimit="10"/><use xlink:href="#c" x="47.406" y="19.51"/><path d="M89.73 23.031h33.16" fill="none" stroke-width=".399" stroke="#000" stroke-miterlimit="10"/><path d="M121.695 21.438c.102.597 1.196 1.492 1.496 1.593-.3.098-1.394.996-1.496 1.594" fill="none" stroke-width=".319" stroke-linecap="round" stroke-linejoin="round" stroke="#000" stroke-miterlimit="10"/><use xlink:href="#d" x="104.565" y="19.51"/><path d="M146.426 23.031h33.16" fill="none" stroke-width=".399" stroke="#000" stroke-miterlimit="10"/><path d="M178.39 21.438c.098.597 1.196 1.492 1.493 1.593-.297.098-1.395.996-1.492 1.594" fill="none" stroke-width=".319" stroke-linecap="round" stroke-linejoin="round" stroke="#000" stroke-miterlimit="10"/><use xlink:href="#d" x="161.258" y="19.51"/><path d="M203.117 23.031h33.16" fill="none" stroke-width=".399" stroke="#000" stroke-miterlimit="10"/><path d="M235.082 21.438c.102.597 1.195 1.492 1.496 1.593-.3.098-1.394.996-1.496 1.594" fill="none" stroke-width=".319" stroke-linecap="round" stroke-linejoin="round" stroke="#000" stroke-miterlimit="10"/><use xlink:href="#d" x="217.951" y="19.51"/><path d="M31.566 28.691l55.055 30.973" fill="none" stroke-width=".399" stroke="#000" stroke-miterlimit="10"/><path d="M86.363 57.684c-.207.57.309 1.89.52 2.125-.309-.059-1.707.183-2.086.656" fill="none" stroke-width=".319" stroke-linecap="round" stroke-linejoin="round" stroke="#000" stroke-miterlimit="10"/><use xlink:href="#d" x="57.32" y="54.036"/><path d="M108.629 65.55h52.058" fill="none" stroke-width=".399" stroke="#000" stroke-miterlimit="10"/><path d="M159.488 63.957c.102.598 1.2 1.492 1.496 1.594-.297.097-1.394.996-1.496 1.594" fill="none" stroke-width=".319" stroke-linecap="round" stroke-linejoin="round" stroke="#000" stroke-miterlimit="10"/><use xlink:href="#d" x="132.91" y="75.296"/><path d="M182.75 59.887l55.059-30.969" fill="none" stroke-width=".399" stroke="#000" stroke-miterlimit="10"/><path d="M235.98 28.113c.383.473 1.778.719 2.086.657-.21.234-.726 1.554-.52 2.125" fill="none" stroke-width=".319" stroke-linecap="round" stroke-linejoin="round" stroke="#000" stroke-miterlimit="10"/><use xlink:href="#d" x="208.502" y="54.036"/></svg>